<?xml version="1.0" encoding="UTF-8"?>
<svg id="_Слой_1" data-name=" Слой 1" xmlns="http://www.w3.org/2000/svg" viewBox="0 0 101.04 101.04">
  <defs>
    <style>
      .cls-1 {
        fill: #fff;
      }

      .cls-2 {
        fill: #c51c1a;
      }

      .cls-3 {
        fill: #e6332a;
      }

      .cls-4 {
        font-family: Bahnschrift-BoldCondensed, Bahnschrift;
        font-size: 7.55px;
        font-variation-settings: 'wght' 700, 'wdth' 75;
      }

      .cls-4, .cls-5 {
        font-weight: 700;
      }

      .cls-6 {
        fill: #f9b233;
      }

      .cls-5 {
        font-family: Bahnschrift-Bold, Bahnschrift;
        font-size: 9px;
        font-variation-settings: 'wght' 700, 'wdth' 100;
      }

      .cls-7 {
        fill: #ca9e67;
      }

      .cls-8 {
        fill: #1d1d1b;
      }
    </style>
  </defs>
  <path d="M50.52,2c26.75,0,48.52,21.77,48.52,48.52s-21.77,48.52-48.52,48.52S2,77.27,2,50.52,23.77,2,50.52,2m0-2C22.62,0,0,22.62,0,50.52s22.62,50.52,50.52,50.52,50.52-22.62,50.52-50.52S78.42,0,50.52,0h0Z"/>
  <text class="cls-4" transform="translate(91.42 46.17) rotate(92.07) scale(.91 1)"><tspan x="0" y="0">B</tspan></text>
  <text class="cls-4" transform="translate(91.33 49) rotate(95.87) scale(.91 1)"><tspan x="0" y="0">M</tspan></text>
  <text class="cls-4" transform="translate(90.93 52.7) rotate(98.75) scale(.91 1)"><tspan x="0" y="0">I</tspan></text>
  <text class="cls-4" transform="translate(90.76 53.88) rotate(101.17) scale(.91 1)"><tspan x="0" y="0">A</tspan></text>
  <text class="cls-4" transform="translate(90.17 56.8) rotate(103.72) scale(.91 1)"><tspan x="0" y="0"> </tspan></text>
  <text class="cls-4" transform="translate(89.88 58.07) rotate(106.26) scale(.91 1)"><tspan x="0" y="0">A</tspan></text>
  <text class="cls-4" transform="translate(89.05 60.93) rotate(109.74) scale(.91 1)"><tspan x="0" y="0">B</tspan></text>
  <text class="cls-4" transform="translate(88.09 63.59) rotate(112.85) scale(.91 1)"><tspan x="0" y="0">T</tspan></text>
  <text class="cls-4" transform="translate(87.14 65.83) rotate(115.97) scale(.91 1)"><tspan x="0" y="0">E</tspan></text>
  <text class="cls-4" transform="translate(86.03 68.08) rotate(118.27) scale(.91 1)"><tspan x="0" y="0">I</tspan></text>
  <text class="cls-4" transform="translate(85.44 69.21) rotate(120.61) scale(.91 1)"><tspan x="0" y="0">L</tspan></text>
  <text class="cls-4" transform="translate(84.27 71.21) rotate(123.71) scale(.91 1)"><tspan x="0" y="0">U</tspan></text>
  <text class="cls-4" transform="translate(82.78 73.45) rotate(127.29) scale(.91 1)"><tspan x="0" y="0">N</tspan></text>
  <text class="cls-4" transform="translate(80.99 75.81) rotate(131.11) scale(.91 1)"><tspan x="0" y="0">G</tspan></text>
  <text class="cls-4" transform="translate(79.03 78.03) rotate(133.91) scale(.91 1)"><tspan x="0" y="0"> </tspan></text>
  <text class="cls-4" transform="translate(78.11 79.01) rotate(136.48) scale(.91 1)"><tspan x="0" y="0">F</tspan></text>
  <text class="cls-4" transform="translate(76.34 80.7) rotate(139.99) scale(.91 1)"><tspan x="0" y="0">Ü</tspan></text>
  <text class="cls-4" transform="translate(74.3 82.42) rotate(143.87) scale(.91 1)"><tspan x="0" y="0">R</tspan></text>
  <text class="cls-4" transform="translate(71.83 84.2) rotate(146.96) scale(.91 1)"><tspan x="0" y="0"> </tspan></text>
  <text class="cls-4" transform="translate(70.77 84.93) rotate(150.55) scale(.91 1)"><tspan x="0" y="0">M</tspan></text>
  <text class="cls-4" transform="translate(67.49 86.75) rotate(154.2) scale(.91 1)"><tspan x="0" y="0">I</tspan></text>
  <text class="cls-4" transform="translate(66.4 87.3) rotate(157.3) scale(.91 1)"><tspan x="0" y="0">G</tspan></text>
  <text class="cls-4" transform="translate(63.74 88.42) rotate(161.69) scale(.91 1)"><tspan x="0" y="0">R</tspan></text>
  <text class="cls-4" transform="translate(61.06 89.32) rotate(165.95) scale(.91 1)"><tspan x="0" y="0">A</tspan></text>
  <text class="cls-4" transform="translate(58.31 90) rotate(169.78) scale(.91 1)"><tspan x="0" y="0">T</tspan></text>
  <text class="cls-4" transform="translate(55.91 90.42) rotate(172.7) scale(.91 1)"><tspan x="0" y="0">I</tspan></text>
  <text class="cls-4" transform="translate(54.71 90.6) rotate(175.94) scale(.91 1)"><tspan x="0" y="0">O</tspan></text>
  <text class="cls-4" transform="translate(51.8 90.83) rotate(-178.97) scale(.91 1)"><tspan x="0" y="0">N</tspan></text>
  <text class="cls-4" transform="translate(48.8 90.77) rotate(-176.32) scale(.91 1)"><tspan x="0" y="0"> </tspan></text>
  <text class="cls-4" transform="translate(47.49 90.71) rotate(-173.2) scale(.91 1)"><tspan x="0" y="0">U</tspan></text>
  <text class="cls-4" transform="translate(44.83 90.4) rotate(-168.89) scale(.91 1)"><tspan x="0" y="0">N</tspan></text>
  <text class="cls-4" transform="translate(41.93 89.83) rotate(-164.44) scale(.91 1)"><tspan x="0" y="0">D</tspan></text>
  <text class="cls-4" transform="translate(39.15 89.04) rotate(-161.25) scale(.91 1)"><tspan x="0" y="0"> </tspan></text>
  <text class="cls-4" transform="translate(37.9 88.64) rotate(-158.15) scale(.91 1)"><tspan x="0" y="0">B</tspan></text>
  <text class="cls-4" transform="translate(35.3 87.59) rotate(-154.2) scale(.91 1)"><tspan x="0" y="0">E</tspan></text>
  <text class="cls-4" transform="translate(33.04 86.5) rotate(-150.46) scale(.91 1)"><tspan x="0" y="0">V</tspan></text>
  <text class="cls-4" transform="translate(30.81 85.25) rotate(-146.51) scale(.91 1)"><tspan x="0" y="0">Ö</tspan></text>
  <text class="cls-4" transform="translate(28.35 83.62) rotate(-142.76) scale(.91 1)"><tspan x="0" y="0">L</tspan></text>
  <text class="cls-4" transform="translate(26.4 82.15) rotate(-139.12) scale(.91 1)"><tspan x="0" y="0">K</tspan></text>
  <text class="cls-4" transform="translate(24.2 80.23) rotate(-135.41) scale(.91 1)"><tspan x="0" y="0">E</tspan></text>
  <text class="cls-4" transform="translate(22.4 78.47) rotate(-131.75) scale(.91 1)"><tspan x="0" y="0">R</tspan></text>
  <text class="cls-4" transform="translate(20.49 76.34) rotate(-128.21) scale(.91 1)"><tspan x="0" y="0">U</tspan></text>
  <text class="cls-4" transform="translate(18.83 74.24) rotate(-124.62) scale(.91 1)"><tspan x="0" y="0">N</tspan></text>
  <text class="cls-4" transform="translate(17.12 71.76) rotate(-120.86) scale(.91 1)"><tspan x="0" y="0">G</tspan></text>
  <text class="cls-4" transform="translate(15.67 69.35) rotate(-117.4) scale(.91 1)"><tspan x="0" y="0">S</tspan></text>
  <text class="cls-4" transform="translate(14.37 66.86) rotate(-113.88) scale(.91 1)"><tspan x="0" y="0">R</tspan></text>
  <text class="cls-4" transform="translate(13.15 64.09) rotate(-110.5) scale(.91 1)"><tspan x="0" y="0">E</tspan></text>
  <text class="cls-4" transform="translate(12.26 61.73) rotate(-107.2) scale(.91 1)"><tspan x="0" y="0">G</tspan></text>
  <text class="cls-4" transform="translate(11.41 58.93) rotate(-104.74) scale(.91 1)"><tspan x="0" y="0">I</tspan></text>
  <text class="cls-4" transform="translate(11.08 57.73) rotate(-102.28) scale(.91 1)"><tspan x="0" y="0">S</tspan></text>
  <text class="cls-4" transform="translate(10.47 54.92) rotate(-99.24) scale(.91 1)"><tspan x="0" y="0">T</tspan></text>
  <text class="cls-4" transform="translate(10.08 52.51) rotate(-96.25) scale(.91 1)"><tspan x="0" y="0">E</tspan></text>
  <text class="cls-4" transform="translate(9.79 50.02) rotate(-93.06) scale(.91 1)"><tspan x="0" y="0">R</tspan></text>
  <text class="cls-5" transform="translate(14.44 34.56) rotate(-61.59) scale(.92 1)"><tspan x="0" y="0">B</tspan></text>
  <text class="cls-5" transform="translate(16.92 29.98) rotate(-55.1) scale(.92 1)"><tspan x="0" y="0">E</tspan></text>
  <text class="cls-5" transform="translate(19.66 26.03) rotate(-48.63) scale(.92 1)"><tspan x="0" y="0">S</tspan></text>
  <text class="cls-5" transform="translate(22.95 22.32) rotate(-42.66) scale(.92 1)"><tspan x="0" y="0">T</tspan></text>
  <text class="cls-5" transform="translate(25.58 19.82) rotate(-36.65) scale(.92 1)"><tspan x="0" y="0">Ä</tspan></text>
  <text class="cls-5" transform="translate(29.66 16.81) rotate(-30.37) scale(.92 1)"><tspan x="0" y="0">T</tspan></text>
  <text class="cls-5" transform="translate(33.15 14.8) rotate(-25.72) scale(.92 1)"><tspan x="0" y="0">I</tspan></text>
  <text class="cls-5" transform="translate(35.06 13.79) rotate(-20.18) scale(.92 1)"><tspan x="0" y="0">G</tspan></text>
  <text class="cls-5" transform="translate(39.94 12.03) rotate(-13.33) scale(.92 1)"><tspan x="0" y="0">T</tspan></text>
  <text class="cls-5" transform="translate(43.73 11.17) rotate(-8.73) scale(.92 1)"><tspan x="0" y="0"> </tspan></text>
  <text class="cls-5" transform="translate(45.77 10.77) rotate(-3.15) scale(.92 1)"><tspan x="0" y="0">B</tspan></text>
  <text class="cls-5" transform="translate(50.8 10.47) rotate(4.57) scale(.92 1)"><tspan x="0" y="0">Ü</tspan></text>
  <text class="cls-5" transform="translate(55.95 10.86) rotate(12.46) scale(.92 1)"><tspan x="0" y="0">R</tspan></text>
  <text class="cls-5" transform="translate(60.9 11.93) rotate(20.13) scale(.92 1)"><tspan x="0" y="0">G</tspan></text>
  <text class="cls-5" transform="translate(65.68 13.68) rotate(27.42) scale(.92 1)"><tspan x="0" y="0">E</tspan></text>
  <text class="cls-5" transform="translate(69.93 15.85) rotate(34.67) scale(.92 1)"><tspan x="0" y="0">R</tspan></text>
  <text class="cls-5" transform="translate(74.24 18.83) rotate(41.84) scale(.92 1)"><tspan x="0" y="0">P</tspan></text>
  <text class="cls-5" transform="translate(77.72 21.9) rotate(48.3) scale(.92 1)"><tspan x="0" y="0">A</tspan></text>
  <text class="cls-5" transform="translate(80.99 25.54) rotate(54.6) scale(.92 1)"><tspan x="0" y="0">S</tspan></text>
  <text class="cls-5" transform="translate(83.79 29.45) rotate(60.85) scale(.92 1)"><tspan x="0" y="0">S</tspan></text>
  <path class="cls-2" d="M50.52,14.04c20.12,0,36.48,16.36,36.48,36.48s-16.36,36.48-36.48,36.48S14.04,70.64,14.04,50.52,30.4,14.04,50.52,14.04m0-2C29.3,12.04,12.04,29.3,12.04,50.52s17.26,38.48,38.48,38.48,38.48-17.26,38.48-38.48S71.74,12.04,50.52,12.04h0Z"/>
  <g>
    <g>
      <g>
        <g>
          <g>
            <polygon class="cls-7" points="42.22 79.48 44.29 73.84 45.04 74.04 42.97 79.77 42.22 79.48"/>
            <path class="cls-8" d="M43.01,79.86l-.87-.33,2.11-5.76,.89,.23-2.12,5.86Zm-.7-.41l.62,.24,2.02-5.59-.62-.16-2.02,5.52Z"/>
          </g>
          <g>
            <path class="cls-6" d="M42.22,79.48c.25,.1,.5,.19,.74,.29-.54,1.49-1.08,2.98-1.62,4.47-.08,.2-.31,.29-.51,.22-.2-.07-.32-.29-.26-.5,.55-1.49,1.09-2.99,1.64-4.48h0Z"/>
            <path class="cls-8" d="M40.97,84.56c-.05,0-.1,0-.16-.03-.24-.08-.37-.34-.3-.58l1.66-4.51,.03-.03h.04s.81,.32,.81,.32l-1.64,4.54c-.08,.18-.25,.29-.44,.29Zm1.29-4.99l-1.62,4.42c-.05,.17,.05,.35,.21,.41,.17,.06,.35-.02,.42-.19l1.6-4.41-.62-.24Z"/>
          </g>
          <g>
            <path class="cls-6" d="M44.39,74.96c-.94,2.73-1.89,5.46-2.83,8.19"/>
            <path class="cls-8" d="M41.57,83.22s-.01,0-.02,0c-.04-.01-.05-.05-.04-.09,.91-2.65,1.83-5.29,2.74-7.94l.09-.25s.05-.05,.09-.04c.04,.01,.05,.05,.04,.09l-.09,.25c-.91,2.65-1.83,5.29-2.74,7.94,0,.03-.04,.05-.06,.05Z"/>
          </g>
        </g>
        <g>
          <g>
            <polygon class="cls-7" points="37.25 69.9 33.63 73.45 34.18 74.04 38.09 70.08 37.25 69.9"/>
            <path class="cls-8" d="M34.18,74.14l-.65-.69,3.7-3.62,1,.21-4.04,4.1Zm-.46-.68l.46,.49,3.77-3.82-.68-.15-3.55,3.48Z"/>
          </g>
          <g>
            <path class="cls-6" d="M33.63,73.45c-.99,.97-1.99,1.95-2.98,2.92-.09,.17-.06,.37,.07,.49,.15,.14,.4,.15,.57,0,.97-.94,1.94-1.87,2.9-2.81-.19-.2-.37-.39-.56-.59Z"/>
            <path class="cls-8" d="M30.99,77.04c-.12,0-.23-.04-.32-.13-.15-.14-.18-.38-.08-.57v-.02c.67-.65,1.33-1.29,1.99-1.94l1.05-1.03,.65,.69-.05,.05c-.97,.94-1.94,1.87-2.9,2.81-.1,.09-.22,.13-.34,.13Zm-.29-.62c-.07,.14-.04,.3,.06,.4,.13,.12,.34,.12,.47,0,.95-.92,1.9-1.84,2.86-2.76l-.46-.49-.95,.93c-.66,.64-1.31,1.29-1.97,1.93Z"/>
          </g>
          <g>
            <path class="cls-6" d="M34.2,73.64l-2.27,2.19"/>
            <path class="cls-8" d="M31.93,75.89s-.04,0-.05-.02c-.03-.03-.03-.07,0-.1l2.27-2.19s.07-.03,.1,0c.03,.03,.03,.07,0,.1l-2.27,2.19s-.03,.02-.05,.02Z"/>
          </g>
        </g>
        <g>
          <g>
            <polygon class="cls-7" points="42.18 69.31 38.47 75.5 39.11 76.01 43.61 68.5 42.18 69.31"/>
            <path class="cls-8" d="M39.12,76.11l-.74-.59,3.74-6.25,1.68-.95-4.68,7.79Zm-.56-.62l.52,.42,4.33-7.22-1.2,.68-3.66,6.12Z"/>
          </g>
          <g>
            <path class="cls-6" d="M38.47,75.5c-.74,1.24-1.49,2.49-2.23,3.73-.03,.18,.05,.37,.19,.45,.18,.11,.46,.03,.59-.19l2.09-3.48c-.21-.17-.42-.34-.63-.51h0Z"/>
            <path class="cls-8" d="M36.62,79.79c-.08,0-.16-.02-.22-.06-.17-.1-.26-.31-.22-.52v-.02s2.37-3.94,2.37-3.94v.21l.65,.52-2.12,3.53c-.07,.13-.19,.22-.32,.26-.04,.01-.09,.02-.13,.02Zm-.31-.54c-.02,.15,.04,.3,.16,.37,.07,.04,.16,.05,.25,.03,.1-.03,.19-.1,.24-.19l2.06-3.43-.53-.42-2.18,3.65Z"/>
          </g>
          <g>
            <path class="cls-6" d="M41.84,70.74c-1.18,2.13-2.36,4.26-3.55,6.39"/>
            <path class="cls-8" d="M38.3,77.2s-.02,0-.03,0c-.03-.02-.04-.06-.03-.09l3.55-6.39s.06-.04,.09-.03c.03,.02,.04,.06,.03,.09l-3.55,6.39s-.04,.03-.06,.03Z"/>
          </g>
        </g>
        <g>
          <g>
            <g>
              <g>
                <path class="cls-6" d="M40.5,27.29v.58l.33,.22c.03,.05,.17,.34,.47,.41,.43,.1,.92-.3,.87-.58-.03-.22-.39-.42-.87-.41l-.8-.22Z"/>
                <path class="cls-8" d="M40.54,27.34c.01,.18,.03,.35,.03,.53l-.03-.06,.33,.22h.01c.08,.36,.49,.59,.8,.35,.12-.08,.26-.32,.24-.42-.13-.17-.36-.25-.63-.38-.26-.06-.5-.15-.76-.24h0Zm-.08-.11c.25,.06,.66,.15,.84,.21,.41-.19,1.12-.01,1.12,.52-.02,.36-.38,.54-.68,.58-.4,.09-.76-.09-.98-.43,0,0,.02,.03,.02,.03l-.33-.22-.03-.02c0-.22,.01-.46,.03-.67h0Z"/>
              </g>
              <g>
                <path class="cls-6" d="M38.64,23.61s-1.55,1.04-1.55,2.26c0,.15,.78-.13,.78-.13l.03,.4s-1,.35-1.15-.53,2.12-2.66,2.12-2.66c0,0-.23,.65-.23,.65Z"/>
                <path class="cls-8" d="M37.47,26.28c-.15,0-.31-.03-.45-.11-.18-.11-.3-.29-.34-.55-.15-.91,2.05-2.65,2.14-2.73l.19-.15-.32,.9h-.02s-1.5,1.03-1.52,2.19c.09,.01,.39-.06,.69-.17l.08-.03,.04,.55-.05,.02s-.21,.07-.45,.07Zm1.26-3.12c-.53,.45-2.02,1.76-1.91,2.44,.04,.21,.13,.36,.27,.45,.25,.15,.61,.07,.74,.04l-.02-.26c-.26,.09-.63,.2-.74,.12-.03-.02-.04-.05-.04-.09,0-1.19,1.38-2.18,1.56-2.31l.14-.4Z"/>
              </g>
              <g>
                <path class="cls-6" d="M39.12,23.03l.13,.46s2.2,1.2,2.23,2.03c.02,.63-1.12-.79-1.44-.84-.51-.07-.47-.05-.47-.05l.09,.37h.26s.99,.98,1.45,.98,.5-.31,.5-.55-1.55-2.4-2.75-2.4h0Z"/>
                <path class="cls-8" d="M41.37,26.05c-.46,0-1.33-.84-1.48-.99h-.29s-.1-.39-.1-.39h-.02s.02-.07,.02-.07c.02-.06,.03-.07,.55,0,.14,.02,.35,.2,.68,.5,.21,.19,.59,.54,.68,.5,0,0,.02-.01,.01-.09-.03-.78-2.17-1.96-2.2-1.97h-.03s-.12-.45-.12-.45h-.02v-.56l.12,.42c1.23,.06,2.77,2.18,2.77,2.47,0,.17,0,.62-.57,.62Zm-1.42-1.12l.02,.02c.27,.27,1.05,.97,1.4,.97s.44-.19,.44-.48c-.01-.19-1.43-2.22-2.59-2.33l.1,.34c.26,.14,2.21,1.25,2.24,2.07,0,.11-.03,.19-.09,.22-.16,.07-.42-.15-.82-.52-.23-.21-.5-.45-.6-.46-.2-.03-.32-.04-.38-.05l.06,.24h.23Z"/>
              </g>
              <g>
                <polygon class="cls-6" points="38.87 22.96 38.72 22.71 39.03 22.6 39.16 22.96 38.87 22.96"/>
                <path class="cls-8" d="M39.25,23.02h-.42l-.22-.35,.46-.16,.18,.51Zm-.34-.14h.15l-.07-.2-.17,.06,.09,.14Z"/>
              </g>
            </g>
            <g>
              <g>
                <path class="cls-6" d="M36.61,16.74s.55,2.6,.55,3.86c0,0,.93,.76,1.56,2.11l.31-.11c-.24-.79-.31-2.67-.31-2.67-.7-.7-2.11-3.19-2.11-3.19h0Z"/>
                <path class="cls-8" d="M38.69,22.8l-.03-.06c-.62-1.32-1.53-2.08-1.54-2.09l-.02-.02v-.03c0-1.24-.54-3.82-.55-3.85v-.02s0-.26,0-.26l.13,.22s1.42,2.49,2.1,3.18l.02,.02v.03s.08,1.89,.31,2.66l.02,.06-.43,.16Zm-1.46-2.23c.15,.13,.95,.87,1.53,2.06l.2-.07c-.21-.77-.29-2.37-.3-2.6-.55-.56-1.48-2.12-1.9-2.83,.15,.78,.46,2.48,.47,3.44Z"/>
              </g>
              <path class="cls-8" d="M37.22,20.68s-.07,0-.08-.01l.04-.13s.15,.04,.62-.16c.5-.21,.88-.5,.88-.5l.08,.11s-.4,.3-.91,.52c-.34,.15-.53,.17-.63,.17Z"/>
              <g>
                <path class="cls-8" d="M36.61,16.74l2.19,5.94s-.72-1.65-1.27-2.14c0,0,.04-1.22-.92-3.81h0Z"/>
                <path class="cls-8" d="M38.74,22.71s-.72-1.64-1.26-2.11l-.02-.02v-.03s.03-1.14-.8-3.48l-.13-.35,.11-.1,.04,.1c.04,.11,.08,.21,.11,.31l2.07,5.63-.13,.05Zm-1.14-2.19c.23,.22,.49,.61,.71,1.01l-.92-2.5c.2,.88,.21,1.36,.21,1.49Z"/>
              </g>
            </g>
          </g>
          <g>
            <g>
              <g>
                <g>
                  <path class="cls-2" d="M45.45,68.57l-2.04,3.9s-.11,2.81,1.33,4.43l1.61-7.97,.15-.87-1.05,.51Z"/>
                  <path class="cls-8" d="M44.78,77.05l-.09-.1c-1.44-1.62-1.35-4.45-1.35-4.48v-.03s2.06-3.92,2.06-3.92l1.19-.57-.17,1-1.64,8.1Zm-1.3-4.56c0,.22-.03,2.73,1.22,4.26l1.58-7.83,.12-.74-.91,.44-2.02,3.86Z"/>
                </g>
                <g>
                  <path class="cls-1" d="M46.36,68.93s-1.68,5.43-1.68,9.89c0,0-.07,1.34,.28,1.34,0,0,1.65-.41,1.68-.9,0,0,1.44,.29,1.37-.39l.57-10.41-2.22,.47h0Z"/>
                  <path class="cls-8" d="M44.97,80.24h0c-.06,0-.11-.02-.16-.07-.24-.26-.2-1.23-.19-1.35,0-4.11,1.44-9.1,1.66-9.82h-.56l2.95-.62-.57,10.5c.01,.13-.03,.25-.13,.34-.3,.27-1.04,.17-1.26,.13-.16,.49-1.55,.85-1.72,.89h0Zm1.44-11.25c-.15,.49-1.67,5.63-1.67,9.83-.01,.29-.02,1.07,.16,1.25,.02,.02,.04,.03,.05,.03,.62-.16,1.6-.52,1.62-.84v-.08s.08,.02,.08,.02c.25,.05,.97,.13,1.21-.09,.06-.06,.09-.14,.08-.23l.56-10.33-2.1,.44Z"/>
                </g>
                <g>
                  <path d="M46.63,68.34s-.8,6.75-.8,7.22c0,0,.3,.37,.68,.18,0,0,.61,.52,.61,.41,0,0,1.03,.13,1.03,.39l-.09,1.73s1.75,.43,1.75-1.03c0,0-.26-7.93-.57-8.25l-2.6-.66h0Z"/>
                  <path class="cls-8" d="M48.6,78.4c-.3,0-.54-.06-.56-.06h-.05s.1-1.8,.1-1.8c0-.11-.48-.25-.93-.32,0,0,0,0,0,0-.04,.02-.11,.05-.64-.41-.32,.13-.61-.08-.72-.22l-.02-.02v-.02c0-.47,.77-6.96,.8-7.23v-.06s.09,0,.09,0l2.62,.67h.01c.32,.33,.55,6.98,.59,8.31,0,.4-.13,.71-.38,.9-.26,.2-.6,.26-.89,.26Zm-.47-.18c.2,.04,.87,.14,1.28-.18,.22-.17,.33-.44,.33-.79-.1-3-.33-7.82-.54-8.19l-2.5-.64c-.09,.74-.77,6.52-.79,7.11,.06,.07,.3,.28,.58,.15l.04-.02,.03,.03c.18,.15,.4,.33,.5,.39h.07c.26,.04,1.09,.17,1.09,.47l-.09,1.67Z"/>
                </g>
              </g>
              <g>
                <g>
                  <g>
                    <path class="cls-2" d="M44.48,38.71l-1.24-3.71s-1.2,3.2-1.2,3.71h2.45Z"/>
                    <path class="cls-8" d="M44.57,38.78h-2.61v-.07c0-.52,1.16-3.6,1.21-3.73l.07-.18,1.33,3.98Zm-2.47-.14h2.28l-1.15-3.44c-.4,1.09-1.06,2.94-1.13,3.44Z"/>
                  </g>
                  <g>
                    <path class="cls-1" d="M40.71,27.63s-2.41,7-2.41,7.81l1.97,3.27h1.76c0-.69,1.2-3.71,1.2-3.71l-2.52-7.37Z"/>
                    <path class="cls-8" d="M42.1,38.78h-1.87l-2-3.32v-.02c0-.81,2.32-7.54,2.42-7.83l.06-.19,2.59,7.58v.02s-1.21,3.02-1.21,3.68v.07Zm-1.79-.14h1.66c.06-.77,1.08-3.35,1.19-3.64l-2.45-7.16c-.38,1.11-2.31,6.79-2.35,7.58l1.94,3.22Z"/>
                  </g>
                  <g>
                    <path d="M39.16,22.96l1.55,4.67s-2.41,7.04-2.41,7.81l-2.4-4.33c0-1.32,2.98-8.15,2.98-8.15h.28Z"/>
                    <path class="cls-8" d="M38.36,35.7l-2.53-4.57v-.02c0-1.32,2.86-7.9,2.98-8.18l.02-.04h.33v.07l.06-.02,1.56,4.69v.02c-.03,.07-2.42,7.04-2.42,7.79v.26Zm-2.4-4.61l2.29,4.13c.25-1.36,2.22-7.12,2.38-7.59l-1.53-4.6h-.19c-.25,.57-2.93,6.78-2.95,8.07Z"/>
                  </g>
                </g>
                <g>
                  <g>
                    <path class="cls-2" d="M40.27,38.71l-1.53-2.54s-1.08,3.62-1.08,5.45l1.64,1.88v-4.78h.98Z"/>
                    <path class="cls-8" d="M39.36,43.67l-1.77-2.04v-.03c0-1.81,1.07-5.43,1.08-5.47l.04-.15,1.62,2.69v.09h-.98v4.9Zm-1.64-2.09l1.5,1.72v-4.67h.93l-1.39-2.31c-.2,.7-1.03,3.66-1.04,5.25Z"/>
                  </g>
                  <g>
                    <path class="cls-1" d="M38.73,36.17l-3.24-5.77s-1.44,4.87-1.44,6.99l3.59,4.22c0-1.27,1.08-5.45,1.08-5.45h0Z"/>
                    <path class="cls-8" d="M37.72,41.8l-3.73-4.38v-.03c0-2.11,1.42-6.97,1.44-7.01l.05-.15,3.3,5.87h.05l-.02,.08s-1.08,4.18-1.08,5.43v.18Zm-3.59-4.43l3.46,4.07c.08-1.38,.97-4.88,1.07-5.26l-3.14-5.6c-.24,.84-1.38,4.91-1.39,6.8Z"/>
                  </g>
                  <g>
                    <path d="M35.5,30.4l-3.14-5.59-.56,.36s-1.37,6.45-1.37,7.92l3.64,4.31c0-1.45,1.44-6.99,1.44-6.99h0Z"/>
                    <path class="cls-8" d="M34.13,37.58l-3.77-4.47v-.02c0-1.46,1.32-7.67,1.38-7.93v-.03s.65-.42,.65-.42l3.16,5.62h.05l-.02,.08c-.01,.06-1.43,5.55-1.43,6.98v.19Zm-3.64-4.52l3.51,4.16c.09-1.61,1.31-6.35,1.43-6.8l-3.09-5.51-.47,.31c-.1,.46-1.35,6.41-1.37,7.85Z"/>
                  </g>
                </g>
                <g>
                  <g>
                    <path d="M31.81,34.73l-3.84-4.55-.6,.79s-7.7,39.64,11.11,39.64c3.52,0,6.19-2.38,6.19-2.38l-12.86-33.51Z"/>
                    <path class="cls-8" d="M38.49,70.69c-3.33,0-6.06-1.26-8.1-3.73-4.21-5.11-4.82-14.62-4.59-21.71,.25-7.67,1.5-14.22,1.52-14.28v-.02s.66-.87,.66-.87l3.9,4.63,12.88,33.55-.03,.03s-2.73,2.4-6.23,2.4ZM27.44,31c-.07,.36-1.27,6.77-1.51,14.25-.23,7.06,.38,16.54,4.56,21.62,2.02,2.44,4.71,3.68,8,3.68s5.78-2.06,6.11-2.34l-12.84-33.45-3.77-4.47-.54,.71Z"/>
                  </g>
                  <g>
                    <path class="cls-1" d="M36.48,40.23l-4.67-5.5s-2.87,31.77,4.67,31.77c5.06,0,4.69-.24,4.69-.24,0,0-4.69-26.04-4.69-26.04Z"/>
                    <path class="cls-8" d="M36.48,66.57c-.78,0-1.49-.34-2.1-1.01-2.05-2.24-3.11-8.11-3.16-17.45-.04-6.95,.53-13.32,.53-13.39v-.16s4.8,5.64,4.8,5.64v.02s4.69,26.02,4.69,26.02c.01,.02,.01,.04,0,.06-.02,.07-.08,.27-4.76,.27Zm-4.61-31.67c-.18,2.18-2.02,25.51,2.61,30.57,.59,.64,1.26,.97,2,.97,3.77,0,4.48-.13,4.62-.18l-4.68-25.99-4.55-5.36Z"/>
                  </g>
                  <g>
                    <path class="cls-2" d="M39.29,43.49l-2.81-3.26s-2.43,25.84,4.43,25.84l-1.62-22.58h0Z"/>
                    <path class="cls-8" d="M40.99,66.14h-.07c-.79,0-1.49-.34-2.09-1-4.26-4.68-2.43-24.71-2.41-24.91v-.16s2.91,3.36,2.91,3.36h.03v.06s1.63,22.65,1.63,22.65Zm-4.45-25.74c-.16,1.91-1.63,20.24,2.39,24.65,.56,.61,1.2,.93,1.92,.95l-1.62-22.48-2.69-3.12Z"/>
                  </g>
                </g>
              </g>
            </g>
            <g>
              <g>
                <g>
                  <path class="cls-6" d="M23.46,25.78s1.01,1.96,1.09,2.89c0,0,2.27,1.28,2.75,1.92l.3-.56s-1.49-1.66-1.17-2.67c0,0-1.44-.05-2.97-1.58h0Z"/>
                  <path class="cls-8" d="M27.3,30.72l-.06-.09c-.46-.63-2.7-1.89-2.72-1.9l-.03-.02v-.04c-.08-.86-.99-2.67-1.08-2.85l-.04-.04,.11-.11,.04,.08c1.48,1.48,2.89,1.55,2.91,1.55h.09s-.03,.09-.03,.09c-.31,.96,1.14,2.59,1.16,2.6l.03,.04-.37,.7Zm-2.69-2.09c.27,.15,2.12,1.21,2.67,1.84l.23-.43c-.22-.25-1.39-1.66-1.18-2.62-.31-.03-1.42-.23-2.65-1.33,.29,.6,.85,1.82,.92,2.53Z"/>
                </g>
                <rect class="cls-8" x="24.34" y="27.95" width="2.28" height=".14" transform="translate(-11.44 19.62) rotate(-34.9)"/>
                <g>
                  <path class="cls-8" d="M23.46,25.78l4.01,4.5s-2.08-2.19-2.5-1.9c0,0-.21-1.29-1.51-2.6h0Z"/>
                  <path class="cls-8" d="M27.41,30.32c-.85-.89-2.15-2.07-2.41-1.89l-.09,.06-.02-.11s-.16-.95-1.02-2.03l-.47-.52h-.01s-.12-.13-.12-.13h.19l.03,.03c.18,.18,.34,.36,.48,.54l3.52,3.94-.1,.09Zm-2.36-2.04c.27,0,.73,.33,1.19,.72l-1.69-1.9c.31,.56,.43,1,.47,1.18,.01,0,.02,0,.03,0Z"/>
                </g>
              </g>
              <g>
                <g>
                  <path class="cls-6" d="M29.17,19.31l.18,3.15c.67-.22,2.45,2.71,2.45,2.71l.56-.36s-1.41-2.5-1-3.31c0,0-1.96-1.52-2.19-2.18h0Z"/>
                  <path class="cls-8" d="M31.78,25.26l-.04-.06c-.67-1.11-1.91-2.83-2.37-2.68l-.08,.03-.2-3.41,.14,.13v.02c.23,.64,2.15,2.13,2.17,2.15l.04,.03-.03,.05c-.39,.77,.98,3.23,.99,3.25l.03,.06-.67,.44Zm-2.35-2.88c.71,0,2.11,2.22,2.4,2.69l.45-.29c-.21-.38-1.31-2.45-.99-3.27-.26-.2-1.55-1.23-2.02-1.91l.16,2.78s0,0,0,0Z"/>
                </g>
                <g>
                  <path class="cls-8" d="M31.92,25.09l-2.75-5.78s1.09,2.28,.87,3.12c0,0,.8,.3,1.88,2.65h0Z"/>
                  <path class="cls-8" d="M32.03,25.15h-.15l-.02-.04-.22-.46c-.94-1.87-1.62-2.15-1.62-2.16l-.06-.02v-.06c.22-.8-.84-3.05-.85-3.08l.12-.06s0,0,0,0l2.53,5.31c.07,.15,.15,.3,.23,.47l.04,.1Zm-1.91-2.76c.12,.07,.43,.28,.86,.88l-1.06-2.22c.15,.51,.26,1.01,.19,1.34Z"/>
                </g>
                <path class="cls-8" d="M29.36,22.53v-.14s.52-.04,.96-.25c.44-.22,.99-.69,1-.7l.09,.1s-.57,.49-1.03,.72c-.46,.23-1,.26-1.02,.27Z"/>
              </g>
              <g>
                <g>
                  <path class="cls-6" d="M30.39,28.36c.13-.09,.26-.2,.4-.32,0,.08-.01,.15-.02,.23-.01,.41-.44,1.36-.44,1.36l-.28-.17s.3-.33,.28-.7c0-.08,.02-.23,.06-.4Z"/>
                  <path class="cls-8" d="M30.35,29.72l-.42-.25,.06-.06s.28-.32,.26-.65c0-.11,.03-.29,.07-.42v-.02s.03-.01,.03-.01c.13-.09,.26-.19,.39-.31l.14-.13-.02,.18c0,.07-.01,.14-.02,.23-.01,.42-.43,1.34-.45,1.38l-.03,.07Zm-.21-.28l.15,.09c.1-.22,.4-.93,.41-1.26,0-.02,0-.05,0-.07-.09,.07-.17,.14-.25,.2-.04,.16-.06,.28-.06,.35,.02,.3-.16,.57-.25,.69Z"/>
                </g>
                <g>
                  <path class="cls-6" d="M32.36,25.31c-.13,.24-1.47,.89-1.76,1.1-.29,.21-.77,.96-.89,1.45-.05,.24,.39,.09,.87-.19,.11-.07,.22-.14,.32-.22,.4-.29,.75-.65,.75-.93,0-.09-.59,.41-.68,.71-.02,.06-.04,.14-.07,.22-.11,.08-.22,.15-.32,.22,.14-.42,.18-.62,.28-.8s1.06-.99,1.06-.41c0,.28-.56,1.04-1.14,1.57-.13,.12-.27,.23-.4,.32-.51,.35-.94,.4-.94-.33,0-1.76,2.35-2.86,2.35-2.86l.56-.36s.13,.26,0,.51Z"/>
                  <path class="cls-8" d="M32.42,25.34c-.11,.16-.25,.22-.4,.32-.41,.26-.84,.48-1.25,.72-.4,.25-.63,.69-.84,1.1-.06,.13-.12,.29-.14,.42,0,0,0,0,0,0,0,0,.01,0,.02,0,.1,0,.21-.04,.32-.08,.48-.22,1.38-.76,1.47-1.31,0-.02,0,.01,0,.02,0,.02,.04,.03,.05,.03-.05,.03-.13,.09-.18,.14-.16,.15-.34,.32-.43,.53l-.07,.23v.02s-.02,.01-.02,.01c-.13,.08-.27,.15-.41,.21l.03-.06c0-.06,.01-.11,.02-.16,.08-.25,.11-.54,.28-.75,.24-.23,.47-.44,.8-.55,.06-.01,.12-.02,.2,.01,.44,.3-.49,1.28-.71,1.54-.31,.31-1.2,1.25-1.64,.79-.15-.19-.14-.43-.13-.65,.1-1.31,1.33-2.24,2.38-2.79,.03-.02,.61-.4,.62-.41,.1,.2,.14,.44,.03,.64h0Zm-.12-.07c.07-.13,.06-.31,0-.44l.1,.03s-.56,.36-.56,.37c-.73,.37-1.43,.88-1.9,1.55-.23,.34-.39,.72-.42,1.13-.03,.45,.08,.81,.6,.54,.69-.41,1.28-1.07,1.68-1.77,.04-.08,.08-.17,.06-.26-.04-.26-.55,.14-.66,.23-.16,.12-.3,.26-.36,.46-.03,.1-.12,.35-.16,.44-.02,.05-.04,.1-.07,.14l-.04-.03c.1-.08,.2-.16,.3-.25l-.03,.04,.07-.23c.09-.24,.28-.42,.46-.59,.08-.06,.17-.18,.29-.17,.07,.02,.06,.1,.05,.16-.16,.53-.68,.85-1.11,1.13-.18,.1-.87,.53-.97,.19,0-.12,.03-.17,.06-.26,.18-.46,.44-.89,.78-1.24,.32-.26,.7-.41,1.05-.62,.25-.16,.57-.3,.76-.52h0Z"/>
                </g>
                <g>
                  <path class="cls-6" d="M30.04,29.46c-.12,.06-.32,.17-.49,.37-.13,.15-.45,.52-.33,.95,.09,.29,.38,.57,.7,.56,.44-.02,.74-.58,.67-1-.02-.12-.14-.19-.22-.42-.04-.11-.05-.21-.06-.27-.09-.06-.19-.11-.28-.17h0Z"/>
                  <path class="cls-8" d="M30.04,29.52c-.45,.14-.97,.81-.67,1.3,.33,.5,.82,.37,1.09-.11,.06-.12,.08-.26,.07-.39,0-.03-.03-.07-.06-.11-.12-.17-.19-.37-.22-.58l.03,.05c-.08-.05-.17-.1-.25-.16h0Zm0-.14c.11,.06,.23,.13,.34,.2v.03c0,.19,.06,.37,.18,.52,.03,.04,.06,.08,.08,.15,.04,.17,.03,.32,0,.49-.06,.51-.54,.91-1.05,.66-.32-.17-.51-.5-.49-.84,.03-.32,.23-.58,.43-.8,.13-.14,.28-.26,.43-.37,0,0,.04-.02,.06-.03h0Z"/>
                </g>
              </g>
              <g>
                <g>
                  <g>
                    <path class="cls-6" d="M27.25,30.68s-1.14,1.8-1.11,2.24c.01,.25,.23,1.88,.2,2.14-.04,.43-.54,.73-.61,1.03s-.12,.73-.12,.73h.27s.14-.53,.2-.69c.1-.24,.44-.49,.48-.67,.04-.18-.02-1.3-.07-1.5-.05-.2-.03-1.09,.07-1.34s.81-1.64,.81-1.64l-.13-.3h0Z"/>
                    <path class="cls-8" d="M25.93,36.89h-.4v-.08s.06-.43,.13-.74c.03-.15,.15-.28,.27-.43,.15-.18,.31-.37,.33-.6,.01-.16-.07-.93-.14-1.49-.03-.31-.06-.55-.07-.64-.02-.43,.92-1.96,1.1-2.25l-.03-.06h.23l-.05,.07,.13,.29v.03s-.72,1.39-.82,1.63c-.1,.24-.11,1.11-.07,1.3,.05,.2,.11,1.33,.07,1.53-.02,.11-.12,.22-.23,.34-.1,.11-.2,.23-.25,.34-.06,.15-.2,.68-.2,.68v.05Zm-.26-.14h.14c.04-.14,.14-.52,.19-.65,.05-.13,.17-.26,.27-.38,.09-.1,.19-.21,.2-.28,.04-.17-.02-1.28-.07-1.47-.05-.2-.04-1.11,.07-1.38,.09-.23,.69-1.41,.8-1.62l-.07-.15c-.35,.56-1.05,1.77-1.03,2.09,0,.08,.03,.34,.07,.63,.07,.6,.15,1.34,.14,1.52-.02,.27-.2,.48-.36,.67-.11,.13-.22,.26-.24,.37-.05,.22-.09,.51-.11,.64Z"/>
                  </g>
                  <g>
                    <path class="cls-6" d="M25.61,36.82c-.06,.02-.18,.05-.25,.17-.05,.09-.06,.18-.05,.21-.27,.18-.41,.48-.36,.77,.07,.38,.45,.63,.82,.6,.41-.03,.77-.41,.73-.81-.05-.39-.47-.57-.48-.58,0-.01,.07-.1,.03-.2-.03-.1-.13-.14-.17-.16-.11-.05-.21-.02-.27,0h0Z"/>
                    <path class="cls-8" d="M25.64,36.93c-.15,.02-.25,.12-.26,.27,0,0-.01,.05-.01,.06-.17,.04-.28,.19-.34,.34-.19,.47,.27,.93,.73,.87,.43-.04,.84-.53,.59-.94-.04-.07-.09-.13-.15-.18-.06-.05-.12-.12-.21-.1l-.09,.03,.06-.13c.09-.21-.15-.27-.31-.22h0Zm-.06-.21c.21-.09,.53,.03,.56,.28,0,.09-.02,.16-.07,.22,0,0-.04-.11-.03-.1,.06,.08,.14,.1,.21,.16,.22,.16,.37,.43,.32,.71-.17,.85-1.39,.92-1.64,.1-.11-.37,.1-.69,.35-.94l-.03,.06c-.04-.21,.14-.44,.34-.49h0Z"/>
                  </g>
                </g>
                <g>
                  <polygon class="cls-6" points="27.98 30.18 27.69 29.84 27.25 30.68 27.38 30.98 27.98 30.18"/>
                  <path class="cls-8" d="M27.36,31.11l-.19-.43,.51-.95,.38,.46-.7,.93Zm-.04-.43l.07,.16,.5-.66-.18-.22-.38,.72Z"/>
                </g>
              </g>
            </g>
          </g>
        </g>
      </g>
      <g>
        <g>
          <g>
            <polygon class="cls-7" points="58.82 79.48 56.75 73.84 56 74.04 58.07 79.77 58.82 79.48"/>
            <path class="cls-8" d="M58.03,79.86l-.02-.07-2.1-5.8,.89-.23,2.11,5.76-.87,.33Zm-1.95-5.77l2.03,5.59,.62-.24-2.02-5.52-.62,.16Z"/>
          </g>
          <g>
            <path class="cls-6" d="M58.82,79.48c-.25,.1-.5,.19-.74,.29,.54,1.49,1.08,2.98,1.62,4.47,.08,.2,.31,.29,.51,.22,.2-.07,.32-.29,.26-.5-.55-1.49-1.09-2.99-1.64-4.48h0Z"/>
            <path class="cls-8" d="M60.07,84.56c-.19,0-.36-.11-.44-.29l-.77-2.13c-.28-.78-.57-1.57-.85-2.35l-.02-.06,.85-.32,.05,.06,1.64,4.48c.07,.25-.06,.5-.3,.59-.05,.02-.1,.03-.16,.03Zm-1.91-4.75c.28,.76,.55,1.53,.83,2.29l.77,2.12c.07,.16,.26,.24,.42,.18,.17-.06,.26-.24,.21-.42l-1.62-4.42-.62,.24Z"/>
          </g>
          <g>
            <path class="cls-6" d="M56.65,74.96c.94,2.73,1.89,5.46,2.83,8.19"/>
            <path class="cls-8" d="M59.47,83.22s-.05-.02-.06-.05c-.84-2.44-1.68-4.88-2.53-7.32l-.3-.87s0-.07,.04-.09,.07,0,.09,.04l.3,.87c.84,2.44,1.69,4.88,2.53,7.32,.01,.04,0,.07-.04,.09,0,0-.01,0-.02,0Z"/>
          </g>
        </g>
        <g>
          <g>
            <polygon class="cls-7" points="63.79 69.9 67.41 73.45 66.86 74.04 62.95 70.08 63.79 69.9"/>
            <path class="cls-8" d="M66.86,74.14l-4.04-4.1,1-.21,3.7,3.62-.65,.69Zm-3.77-4.02l3.77,3.82,.46-.49-3.55-3.48-.68,.15Z"/>
          </g>
          <g>
            <path class="cls-6" d="M67.41,73.45c.99,.97,1.99,1.95,2.98,2.92,.09,.17,.06,.37-.07,.49-.15,.14-.4,.15-.57,0-.97-.94-1.94-1.87-2.9-2.81,.19-.2,.37-.39,.56-.59h0Z"/>
            <path class="cls-8" d="M70.05,77.04c-.12,0-.24-.04-.34-.13-.97-.94-1.94-1.88-2.91-2.81l-.05-.05,.65-.69,1.02,1c.67,.66,1.34,1.31,2.01,1.97v.02c.11,.19,.08,.43-.07,.57-.09,.08-.2,.12-.32,.12Zm-3.1-3c.95,.92,1.91,1.84,2.86,2.77,.13,.12,.35,.13,.47,0,.1-.1,.13-.26,.06-.4-.67-.65-1.34-1.31-2-1.96l-.92-.9-.46,.49Z"/>
          </g>
          <g>
            <path class="cls-6" d="M66.84,73.64l2.27,2.19"/>
            <path class="cls-8" d="M69.11,75.89s-.03,0-.05-.02l-2.27-2.19s-.03-.07,0-.1c.03-.03,.07-.03,.1,0l2.27,2.19s.03,.07,0,.1c-.01,.01-.03,.02-.05,.02Z"/>
          </g>
        </g>
        <g>
          <g>
            <polygon class="cls-7" points="58.86 69.31 62.57 75.5 61.93 76.01 57.43 68.5 58.86 69.31"/>
            <path class="cls-8" d="M61.92,76.11l-4.68-7.79,1.68,.95v.02s3.74,6.24,3.74,6.24l-.74,.59Zm-4.3-7.42l4.33,7.22,.52-.42-3.66-6.12-1.2-.68Z"/>
          </g>
          <g>
            <path class="cls-6" d="M62.57,75.5c.74,1.24,1.49,2.49,2.23,3.73,.03,.18-.05,.37-.19,.45-.18,.11-.46,.03-.59-.19l-2.09-3.48c.21-.17,.42-.34,.63-.51h0Z"/>
            <path class="cls-8" d="M64.42,79.79s-.09,0-.13-.02c-.14-.04-.25-.13-.32-.26l-2.12-3.53,.65-.52v-.21l2.37,3.96c.04,.21-.05,.42-.22,.52-.07,.04-.14,.06-.22,.06Zm-2.4-3.77l2.06,3.43c.05,.1,.14,.17,.24,.19,.09,.02,.18,.02,.25-.03,.12-.07,.18-.22,.16-.37l-2.18-3.65-.53,.42Z"/>
          </g>
          <g>
            <path class="cls-6" d="M59.2,70.74c1.18,2.13,2.36,4.26,3.55,6.39"/>
            <path class="cls-8" d="M62.74,77.2s-.05-.01-.06-.03l-3.55-6.39s0-.07,.03-.09c.03-.02,.07,0,.09,.03l3.55,6.39s0,.07-.03,.09c-.01,0-.02,0-.03,0Z"/>
          </g>
        </g>
        <g>
          <g>
            <g>
              <g>
                <path class="cls-6" d="M60.54,27.29v.58l-.33,.22c-.03,.05-.17,.34-.47,.41-.43,.1-.92-.3-.87-.58,.03-.22,.39-.42,.87-.41l.8-.22Z"/>
                <path class="cls-8" d="M60.59,27.23c.02,.22,.03,.45,.03,.67l-.03,.02-.33,.22s.02-.03,.02-.03c-.22,.33-.58,.52-.98,.43-.3-.04-.66-.21-.68-.58,0-.54,.72-.72,1.12-.52,.18-.06,.59-.15,.84-.21h0Zm-.08,.11c-.26,.09-.5,.18-.76,.24-.26,.13-.5,.21-.63,.38-.02,.1,.12,.35,.24,.42,.31,.24,.72,0,.8-.34h.01s.33-.23,.33-.23l-.03,.06c0-.18,.01-.34,.03-.53h0Z"/>
              </g>
              <g>
                <path class="cls-6" d="M62.4,23.61s1.55,1.04,1.55,2.26c0,.15-.78-.13-.78-.13l-.03,.4s1,.35,1.15-.53-2.12-2.66-2.12-2.66c0,0,.23,.65,.23,.65Z"/>
                <path class="cls-8" d="M63.57,26.28c-.24,0-.44-.07-.45-.07l-.05-.02,.04-.55,.08,.03c.3,.11,.6,.18,.69,.17-.02-1.16-1.51-2.17-1.52-2.18h-.02s-.32-.91-.32-.91l.19,.15c.09,.07,2.29,1.82,2.14,2.73-.04,.25-.16,.44-.34,.55-.14,.08-.3,.11-.45,.11Zm-.36-.19c.13,.04,.48,.11,.74-.04,.15-.09,.24-.24,.27-.45,.11-.68-1.37-2-1.91-2.44l.14,.4c.19,.13,1.56,1.12,1.56,2.31,0,.03-.02,.07-.04,.09-.11,.08-.48-.03-.74-.12l-.02,.26Z"/>
              </g>
              <g>
                <path class="cls-6" d="M61.92,23.03l-.13,.46s-2.2,1.2-2.23,2.03c-.02,.63,1.12-.79,1.44-.84,.51-.07,.47-.05,.47-.05l-.09,.37h-.26s-.99,.98-1.45,.98-.5-.31-.5-.55,1.55-2.4,2.75-2.4h0Z"/>
                <path class="cls-8" d="M59.67,26.05c-.57,0-.57-.45-.57-.62,0-.29,1.53-2.41,2.77-2.47l.02-.06,.2,.2h-.11l-.12,.44h-.03s-2.17,1.2-2.2,1.98c0,.07,.01,.09,.01,.09,.08,.04,.47-.31,.68-.5,.33-.3,.54-.48,.68-.5,.52-.07,.53-.06,.55,0l.02,.05-.02,.02-.1,.4h-.29c-.15,.14-1.02,.98-1.48,.98Zm2.15-2.94c-1.16,.11-2.58,2.14-2.59,2.33,0,.29,.07,.48,.44,.48s1.14-.7,1.4-.97l.02-.02h.23s.06-.23,.06-.23c-.06,0-.17,.02-.38,.05-.11,.02-.37,.25-.6,.46-.41,.37-.67,.59-.82,.52-.07-.03-.1-.1-.09-.22,.03-.82,1.98-1.93,2.24-2.07l.1-.34Z"/>
              </g>
              <g>
                <polygon class="cls-6" points="62.17 22.96 62.32 22.71 62.01 22.6 61.88 22.96 62.17 22.96"/>
                <path class="cls-8" d="M62.21,23.02h-.42l.18-.51,.46,.16-.21,.35Zm-.23-.14h.15l.09-.14-.17-.06-.07,.2Z"/>
              </g>
            </g>
            <g>
              <g>
                <path class="cls-6" d="M64.43,16.74s-.55,2.6-.55,3.86c0,0-.93,.76-1.56,2.11l-.31-.11c.24-.79,.31-2.67,.31-2.67,.7-.7,2.11-3.19,2.11-3.19h0Z"/>
                <path class="cls-8" d="M62.36,22.8l-.43-.16,.02-.06c.23-.77,.31-2.64,.31-2.66v-.03s.02-.02,.02-.02c.68-.68,2.09-3.15,2.1-3.18l.13-.22v.27s-.55,2.61-.55,3.85v.03l-.02,.02s-.92,.77-1.54,2.09l-.03,.06Zm-.27-.24l.2,.07c.57-1.19,1.38-1.93,1.53-2.06,0-.96,.32-2.66,.47-3.44-.42,.71-1.35,2.27-1.9,2.83,0,.23-.09,1.83-.3,2.6Z"/>
              </g>
              <path class="cls-8" d="M63.82,20.68c-.1,0-.29-.03-.63-.17-.52-.22-.9-.51-.91-.52l.08-.11s.38,.29,.88,.5c.47,.2,.61,.16,.62,.16l.04,.13s-.03,.01-.08,.01Z"/>
              <g>
                <path class="cls-8" d="M64.43,16.74l-2.19,5.94s.72-1.65,1.27-2.14c0,0-.04-1.22,.92-3.81h0Z"/>
                <path class="cls-8" d="M62.3,22.71l-.13-.05,2.07-5.63c.04-.1,.08-.21,.12-.32l.03-.09,.11,.1v.04s-.13,.31-.13,.31c-.82,2.33-.8,3.46-.8,3.47v.03s-.02,.02-.02,.02c-.53,.47-1.25,2.1-1.26,2.11Zm1.36-3.68l-.92,2.5c.22-.4,.48-.8,.71-1.01,0-.13,.01-.61,.21-1.49Z"/>
              </g>
            </g>
          </g>
          <g>
            <g>
              <g>
                <g>
                  <path class="cls-2" d="M55.59,68.57l2.04,3.9s.11,2.81-1.33,4.43l-1.61-7.97-.15-.87,1.05,.51Z"/>
                  <path class="cls-8" d="M56.26,77.05l-1.64-8.1-.17-1,1.19,.57,2.06,3.94s.09,2.86-1.35,4.48l-.09,.1Zm-1.63-8.86l.12,.74,1.58,7.83c1.26-1.53,1.23-4.05,1.22-4.26l-2.02-3.86-.91-.44Z"/>
                </g>
                <g>
                  <path class="cls-1" d="M54.68,68.93s1.68,5.43,1.68,9.89c0,0,.07,1.34-.28,1.34,0,0-1.65-.41-1.68-.9,0,0-1.44,.29-1.37-.39l-.57-10.41,2.22,.47h0Z"/>
                  <path class="cls-8" d="M56.08,80.24h-.02c-.17-.04-1.56-.41-1.72-.89-.23,.04-.97,.14-1.26-.13-.1-.09-.14-.2-.13-.35l-.57-10.49,2.95,.62h-.56c.22,.72,1.66,5.71,1.66,9.82,0,.11,.05,1.08-.19,1.34-.04,.05-.1,.07-.16,.07Zm-1.62-1.05v.08c.02,.32,1.01,.68,1.63,.84,.01,0,.03,0,.05-.03,.17-.18,.17-.96,.16-1.24,0-4.21-1.52-9.35-1.67-9.84l-2.1-.44,.56,10.32c0,.11,.02,.19,.08,.24,.24,.22,.96,.14,1.21,.09l.08-.02Z"/>
                </g>
                <g>
                  <path d="M54.42,68.34s.8,6.75,.8,7.22c0,0-.3,.37-.68,.18,0,0-.61,.52-.61,.41,0,0-1.03,.13-1.03,.39l.09,1.73s-1.75,.43-1.75-1.03c0,0,.26-7.93,.57-8.25l2.6-.66h0Z"/>
                  <path class="cls-8" d="M52.45,78.4c-.29,0-.63-.05-.89-.26-.25-.2-.38-.5-.38-.9,.04-1.33,.27-7.98,.59-8.3h.01s.02-.02,.02-.02l2.61-.67h.06v.06c.04,.28,.81,6.76,.81,7.23v.02l-.02,.02c-.11,.14-.4,.35-.72,.22-.54,.46-.61,.43-.64,.41,0,0,0,0,0,0-.45,.06-.93,.21-.93,.32l.1,1.78h-.05s-.26,.08-.56,.08Zm-.59-9.34c-.21,.36-.45,5.19-.54,8.19,0,.36,.11,.62,.33,.79,.41,.32,1.08,.22,1.28,.18l-.09-1.67c0-.3,.83-.43,1.09-.46h.07c.11-.07,.32-.24,.5-.4l.03-.03,.04,.02c.28,.14,.52-.08,.58-.15-.02-.6-.7-6.38-.79-7.11l-2.5,.64Z"/>
                </g>
              </g>
              <g>
                <g>
                  <g>
                    <path class="cls-2" d="M56.57,38.71l1.24-3.71s1.2,3.2,1.2,3.71h-2.45Z"/>
                    <path class="cls-8" d="M59.08,38.78h-2.61l1.33-3.98,.07,.18c.05,.13,1.21,3.22,1.21,3.73v.07Zm-2.42-.14h2.28c-.06-.5-.72-2.35-1.13-3.44l-1.15,3.44Z"/>
                  </g>
                  <g>
                    <path class="cls-1" d="M60.33,27.63s2.42,7,2.42,7.81l-1.97,3.27h-1.76c0-.69-1.2-3.71-1.2-3.71l2.52-7.37h0Z"/>
                    <path class="cls-8" d="M60.81,38.78h-1.87v-.07c0-.67-1.19-3.65-1.2-3.68v-.02s0-.02,0-.02l2.51-7.35-.02-.07h.19l-.02,.07c.18,.52,2.41,7.01,2.41,7.81v.02l-2,3.32Zm-1.74-.14h1.66l1.94-3.22c-.03-.79-1.96-6.46-2.35-7.58l-2.45,7.16c.12,.29,1.13,2.87,1.19,3.64Z"/>
                  </g>
                  <g>
                    <path d="M61.88,22.96l-1.55,4.67s2.42,7.04,2.42,7.81l2.4-4.33c0-1.32-2.98-8.15-2.98-8.15,0,0-.29,0-.29,0Z"/>
                    <path class="cls-8" d="M62.68,35.7v-.26c0-.74-2.39-7.71-2.41-7.79v-.02s0-.02,0-.02l1.57-4.72h.38l.02,.04c.12,.28,2.98,6.85,2.98,8.18v.02l-2.53,4.57Zm-2.28-8.07c.16,.47,2.13,6.24,2.39,7.59l2.29-4.13c-.02-1.28-2.71-7.5-2.95-8.07h-.19l-1.53,4.6Z"/>
                  </g>
                </g>
                <g>
                  <g>
                    <path class="cls-2" d="M60.77,38.71l1.53-2.54s1.08,3.62,1.08,5.45l-1.64,1.88v-4.78h-.98Z"/>
                    <path class="cls-8" d="M61.68,43.67v-4.9h-.98v-.1s1.62-2.67,1.62-2.67l.04,.15s1.08,3.65,1.08,5.47v.03l-1.77,2.04Zm-.79-5.03h.93v4.67l1.5-1.72c0-1.59-.83-4.56-1.04-5.25l-1.39,2.31Z"/>
                  </g>
                  <g>
                    <path class="cls-1" d="M62.31,36.17l3.24-5.77s1.44,4.87,1.44,6.99l-3.59,4.22c0-1.27-1.08-5.45-1.08-5.45h0Z"/>
                    <path class="cls-8" d="M63.32,41.8v-.18c0-1.25-1.07-5.39-1.08-5.43l-.02-.08h.05l3.3-5.87,.05,.15s1.44,4.9,1.44,7.01v.03l-3.73,4.38Zm-.94-5.62c.1,.38,.99,3.88,1.07,5.26l3.46-4.07c-.01-1.89-1.15-5.95-1.39-6.8l-3.14,5.6Z"/>
                  </g>
                  <g>
                    <path d="M65.54,30.4l3.14-5.59,.56,.36s1.37,6.45,1.37,7.92l-3.64,4.31c0-1.45-1.44-6.99-1.44-6.99h0Z"/>
                    <path class="cls-8" d="M66.91,37.58v-.19c0-1.43-1.42-6.92-1.43-6.98l-.02-.08h.05l3.16-5.62,.64,.42v.03c.06,.26,1.38,6.47,1.38,7.93v.02l-.02,.02-3.76,4.45Zm-1.29-7.17c.12,.46,1.33,5.19,1.43,6.8l3.51-4.16c-.01-1.44-1.27-7.39-1.37-7.85l-.47-.31-3.09,5.51Z"/>
                  </g>
                </g>
                <g>
                  <g>
                    <path d="M69.23,34.73l3.84-4.55,.6,.79s7.7,39.64-11.11,39.64c-3.52,0-6.19-2.38-6.19-2.38l12.86-33.51h0Z"/>
                    <path class="cls-8" d="M62.55,70.69c-3.51,0-6.21-2.38-6.23-2.4l-.04-.03,.02-.04,12.87-33.52h0s3.89-4.62,3.89-4.62l.66,.87v.02c.02,.07,1.27,6.62,1.52,14.28,.23,7.09-.38,16.6-4.59,21.71-2.04,2.48-4.77,3.73-8.1,3.73Zm-6.11-2.47c.33,.28,2.87,2.34,6.11,2.34s5.98-1.24,8-3.68c4.18-5.07,4.79-14.55,4.56-21.62-.24-7.48-1.44-13.89-1.51-14.25l-.54-.71-3.77,4.47-12.84,33.45Z"/>
                  </g>
                  <g>
                    <path class="cls-1" d="M64.56,40.23l4.67-5.5s2.87,31.77-4.67,31.77c-5.06,0-4.69-.24-4.69-.24l4.69-26.04Z"/>
                    <path class="cls-8" d="M64.56,66.57c-4.68,0-4.74-.2-4.76-.27,0-.02,0-.04,0-.06l4.69-26.04,4.78-5.64v.16c.02,.06,.59,6.44,.55,13.39-.05,9.34-1.12,15.21-3.16,17.45-.61,.67-1.32,1.01-2.1,1.01Zm-4.62-.32c.13,.05,.84,.18,4.62,.18,.74,0,1.42-.32,2-.97,4.62-5.06,2.79-28.39,2.61-30.57l-4.55,5.36-4.68,25.99Z"/>
                  </g>
                  <g>
                    <path class="cls-2" d="M61.75,43.49l2.81-3.26s2.43,25.84-4.43,25.84l1.62-22.58h0Z"/>
                    <path class="cls-8" d="M60.13,66.14h-.07v-.07s1.63-22.64,1.63-22.64h.03l2.89-3.36v.16c.03,.2,1.86,20.24-2.39,24.91-.6,.66-1.31,1-2.09,1Zm1.69-22.62l-1.62,22.48c.72-.02,1.36-.34,1.92-.95,4.02-4.41,2.55-22.74,2.39-24.65l-2.69,3.12Z"/>
                  </g>
                </g>
              </g>
            </g>
            <g>
              <g>
                <g>
                  <path class="cls-6" d="M77.58,25.78s-1.01,1.96-1.09,2.89c0,0-2.27,1.28-2.75,1.92l-.3-.56s1.49-1.66,1.17-2.67c0,0,1.44-.05,2.97-1.58h0Z"/>
                  <path class="cls-8" d="M73.74,30.72l-.37-.7,.03-.04s1.46-1.64,1.16-2.6l-.03-.08h.09s1.42-.08,2.91-1.55l.04-.08,.12,.11-.05,.05c-.09,.18-1,1.99-1.08,2.85v.04s-.03,.02-.03,.02c-.02,.01-2.27,1.28-2.72,1.9l-.06,.09Zm-.21-.68l.23,.43c.55-.63,2.4-1.69,2.67-1.84,.08-.71,.63-1.93,.92-2.53-1.23,1.1-2.33,1.29-2.64,1.33,.22,.96-.96,2.37-1.18,2.62Z"/>
                </g>
                <rect class="cls-8" x="75.49" y="26.87" width=".14" height="2.28" transform="translate(9.34 73.93) rotate(-55.08)"/>
                <g>
                  <path class="cls-8" d="M77.58,25.78l-4.01,4.5s2.08-2.19,2.5-1.9c0,0,.21-1.29,1.51-2.6h0Z"/>
                  <path class="cls-8" d="M73.63,30.32l-.1-.09,3.52-3.94c.14-.18,.3-.36,.48-.54l.03-.04h.2l-.12,.12s0,0-.01,.01l-.46,.52c-.85,1.07-1.02,2.02-1.02,2.03l-.02,.11-.09-.06c-.26-.18-1.56,1-2.41,1.89Zm2.86-3.21l-1.69,1.9c.48-.41,.97-.75,1.23-.72,.04-.17,.16-.62,.47-1.18Z"/>
                </g>
              </g>
              <g>
                <g>
                  <path class="cls-6" d="M71.87,19.31l-.18,3.15c-.67-.22-2.45,2.71-2.45,2.71l-.56-.36s1.41-2.5,1-3.31c0,0,1.96-1.52,2.19-2.18h0Z"/>
                  <path class="cls-8" d="M69.26,25.26l-.67-.44,.03-.06s1.39-2.48,.99-3.25l-.03-.05,.04-.03s1.94-1.51,2.17-2.15v-.02s.14-.12,.14-.12v.16s-.2,3.24-.2,3.24l-.08-.03c-.46-.15-1.69,1.57-2.37,2.68l-.04,.06Zm-.49-.48l.45,.29c.29-.47,1.69-2.69,2.4-2.69,0,0,0,0,0,0l.16-2.78c-.47,.68-1.77,1.71-2.02,1.91,.32,.82-.78,2.89-.99,3.27Z"/>
                </g>
                <g>
                  <path class="cls-8" d="M69.12,25.09l2.75-5.78s-1.09,2.28-.87,3.12c0,0-.8,.3-1.88,2.65Z"/>
                  <path class="cls-8" d="M69.18,25.12l-.12-.06c.07-.15,.13-.28,.2-.41l2.56-5.36,.12,.06h0s0,0,0,0c-.03,.05-1.07,2.28-.87,3.08l.02,.06-.06,.02s-.7,.29-1.65,2.21l-.19,.41Zm1.94-4.07l-1.06,2.23c.43-.6,.75-.82,.87-.88-.06-.33,.04-.84,.19-1.34Z"/>
                </g>
                <path class="cls-8" d="M71.68,22.53s-.55-.04-1.02-.27c-.46-.23-1.01-.7-1.03-.72l.09-.1s.55,.48,1,.7c.44,.22,.96,.25,.97,.25v.14Z"/>
              </g>
              <g>
                <g>
                  <path class="cls-6" d="M70.65,28.36c-.13-.09-.26-.2-.4-.32,0,.08,.01,.15,.02,.23,.01,.41,.44,1.36,.44,1.36l.28-.17s-.3-.33-.28-.7c0-.08-.02-.23-.06-.4Z"/>
                  <path class="cls-8" d="M70.69,29.72l-.03-.07s-.44-.96-.45-1.38c0-.08,0-.16-.02-.23l-.02-.18,.14,.13c.13,.12,.26,.23,.39,.31h.02s0,.04,0,.04c.03,.13,.07,.3,.07,.42-.02,.34,.26,.65,.26,.65l.06,.06-.42,.25Zm-.35-1.52s0,.04,0,.07c0,.33,.31,1.04,.41,1.26l.15-.09c-.09-.12-.26-.39-.25-.69,0-.07-.02-.19-.06-.35-.08-.06-.17-.13-.25-.2Z"/>
                </g>
                <g>
                  <path class="cls-6" d="M68.68,25.31c.13,.24,1.47,.89,1.76,1.1,.29,.21,.77,.96,.89,1.45,.05,.24-.39,.09-.87-.19-.11-.07-.22-.14-.32-.22-.4-.29-.75-.65-.75-.93,0-.09,.59,.41,.68,.71,.02,.06,.04,.14,.07,.22,.11,.08,.22,.15,.32,.22-.14-.42-.18-.62-.28-.8s-1.06-.99-1.06-.41c0,.28,.56,1.04,1.14,1.57,.13,.12,.27,.23,.4,.32,.51,.35,.94,.4,.94-.33,0-1.76-2.35-2.86-2.35-2.86l-.56-.36s-.13,.26,0,.51h0Z"/>
                  <path class="cls-8" d="M68.74,25.28c.2,.22,.51,.36,.76,.52,.41,.26,.91,.42,1.22,.81,.28,.35,.52,.74,.65,1.18,0,.04,.03,.07,.02,.15-.09,.34-.78-.09-.97-.19-.28-.17-.54-.36-.78-.6-.15-.16-.33-.37-.34-.61,.03-.32,.62,.35,.69,.44,.1,.11,.16,.32,.2,.46l-.02-.04c.1,.09,.19,.17,.3,.25l-.04,.03c-.06-.07-.09-.2-.12-.29-.04-.1-.12-.34-.16-.43-.06-.19-1.08-1.01-.95-.42,.16,.43,.48,.78,.78,1.12,.28,.3,.59,.59,.95,.78,.51,.27,.63-.08,.6-.54-.02-.4-.18-.79-.42-1.13-.47-.67-1.17-1.18-1.9-1.55,0,0-.56-.36-.56-.37l.1-.03c-.06,.14-.07,.31,0,.44h0Zm-.12,.06c-.11-.2-.07-.44,.03-.64l.07,.04,.56,.36c1.05,.54,2.27,1.47,2.38,2.79,0,.22,.02,.46-.13,.65-.45,.46-1.33-.48-1.64-.79-.22-.26-1.16-1.24-.71-1.54,.07-.04,.14-.02,.2-.01,.33,.11,.57,.32,.8,.55,.18,.21,.21,.5,.28,.75,.01,.05,.03,.1,.02,.16l.03,.06c-.14-.06-.28-.13-.41-.21-.02-.01-.02-.01-.03-.04l-.07-.23c-.08-.21-.26-.38-.43-.53-.06-.05-.13-.11-.18-.14,.02,0,.05-.01,.05-.03,0,0,0-.04,0-.02,.09,.55,.99,1.09,1.47,1.31,.1,.04,.21,.08,.32,.08,.01,0,.03,0,.03,0-.02-.13-.09-.29-.14-.42-.21-.41-.45-.85-.84-1.1-.41-.24-.85-.46-1.25-.72-.15-.1-.28-.17-.4-.32h0Z"/>
                </g>
                <g>
                  <path class="cls-6" d="M71,29.46c.12,.06,.32,.17,.49,.37,.13,.15,.45,.52,.33,.95-.09,.29-.38,.57-.7,.56-.44-.02-.74-.58-.67-1,.02-.12,.14-.19,.22-.42,.04-.11,.05-.21,.06-.27,.09-.06,.19-.11,.28-.17h0Z"/>
                  <path class="cls-8" d="M70.99,29.39s.06,.02,.06,.03c.15,.11,.3,.23,.43,.37,.2,.22,.41,.48,.43,.8,.02,.35-.17,.68-.49,.84-.51,.25-1-.15-1.05-.66-.03-.17-.04-.32,0-.49,.02-.06,.06-.11,.08-.15,.12-.15,.18-.33,.18-.52v-.03c.11-.07,.23-.13,.34-.2h0Zm0,.14c-.08,.06-.16,.11-.25,.16l.03-.05c-.03,.2-.1,.41-.22,.58-.03,.04-.05,.08-.06,.11-.02,.12,0,.27,.07,.39,.27,.49,.76,.62,1.09,.11,.3-.49-.22-1.16-.67-1.3h0Z"/>
                </g>
              </g>
              <g>
                <g>
                  <g>
                    <path class="cls-6" d="M73.79,30.68s1.14,1.8,1.11,2.24c-.01,.25-.23,1.88-.2,2.14,.04,.43,.54,.73,.61,1.03s.12,.73,.12,.73h-.27s-.14-.53-.2-.69c-.1-.24-.44-.49-.48-.67-.04-.18,.02-1.3,.07-1.5,.05-.2,.03-1.09-.07-1.34s-.81-1.64-.81-1.64l.13-.3h0Z"/>
                    <path class="cls-8" d="M75.51,36.89h-.4v-.05s-.15-.53-.21-.68c-.05-.11-.15-.23-.25-.34-.11-.13-.21-.24-.23-.34-.05-.2,.02-1.34,.07-1.53,.04-.18,.03-1.06-.07-1.3-.1-.24-.8-1.62-.81-1.63v-.03s.11-.29,.11-.29l-.05-.07h.23l-.03,.06c.18,.29,1.13,1.82,1.1,2.25,0,.09-.03,.33-.07,.64-.06,.56-.15,1.33-.14,1.49,.02,.23,.18,.41,.33,.6,.12,.14,.24,.28,.27,.43,.07,.31,.12,.72,.12,.74v.08Zm-.29-.14h.14c-.02-.14-.06-.42-.11-.64-.03-.12-.13-.24-.24-.37-.16-.19-.34-.4-.36-.67-.01-.18,.07-.92,.14-1.52,.03-.29,.06-.54,.07-.63,.02-.32-.68-1.53-1.03-2.09l-.07,.15c.1,.21,.7,1.38,.8,1.62,.11,.27,.12,1.18,.07,1.38-.05,.2-.1,1.31-.07,1.47,.02,.07,.11,.18,.2,.28,.11,.12,.22,.25,.27,.38,.06,.13,.16,.51,.19,.65Z"/>
                  </g>
                  <g>
                    <path class="cls-6" d="M75.43,36.82c.06,.02,.18,.05,.25,.17,.05,.09,.06,.18,.05,.21,.27,.18,.41,.48,.36,.77-.07,.38-.45,.63-.82,.6-.41-.03-.77-.41-.73-.81,.05-.39,.47-.57,.48-.58,0-.01-.07-.1-.03-.2,.03-.1,.13-.14,.17-.16,.11-.05,.21-.02,.27,0h0Z"/>
                    <path class="cls-8" d="M75.46,36.72c.2,.05,.38,.27,.34,.49l-.03-.06c.25,.26,.46,.57,.35,.94-.26,.82-1.48,.76-1.64-.1-.05-.28,.1-.55,.32-.71,.07-.06,.15-.08,.21-.16,0-.01-.03,.1-.03,.1-.04-.06-.08-.14-.07-.22,.03-.25,.35-.37,.56-.28h0Zm-.06,.21c-.16-.05-.41,.01-.31,.22l.06,.13-.09-.03c-.09-.02-.15,.06-.21,.1-.06,.05-.11,.11-.15,.18-.24,.42,.17,.91,.59,.94,.46,.06,.92-.4,.73-.87-.06-.15-.17-.31-.34-.34,0,0-.01-.05-.01-.06-.01-.16-.11-.25-.26-.27h0Z"/>
                  </g>
                </g>
                <g>
                  <polygon class="cls-6" points="73.06 30.18 73.35 29.84 73.79 30.68 73.66 30.98 73.06 30.18"/>
                  <path class="cls-8" d="M73.68,31.11l-.7-.93,.38-.46,.51,.95-.19,.43Zm-.53-.92l.5,.66,.07-.16-.38-.72-.18,.22Z"/>
                </g>
              </g>
            </g>
          </g>
        </g>
      </g>
    </g>
    <g>
      <g>
        <path class="cls-1" d="M50.52,38.71h-11.23v24.79c0,3.82,11.23,6.82,11.23,6.82,0,0,11.23-3,11.23-6.82v-24.79h-11.23Z"/>
        <path class="cls-8" d="M50.52,70.38h-.02c-.46-.13-11.28-3.06-11.28-6.89v-24.86h22.6v24.86c0,3.83-10.82,6.76-11.28,6.88h-.02Zm-11.16-31.6v24.72c0,3.66,10.66,6.61,11.16,6.75,.5-.14,11.16-3.09,11.16-6.75v-24.72h-22.33Z"/>
      </g>
      <g>
        <g>
          <polygon class="cls-1" points="50.52 34.65 47.69 36.67 48.75 33.36 45.95 31.3 49.43 31.28 50.52 27.98 51.61 31.28 55.09 31.3 52.29 33.36 53.35 36.67 50.52 34.65"/>
          <path class="cls-8" d="M50.52,28.19l1.04,3.15,3.32,.02-2.68,1.97,1.01,3.17-2.7-1.94-2.7,1.94,1.01-3.17-2.68-1.97,3.32-.02,1.04-3.15m0-.43l-.13,.39-1.01,3.06-3.23,.02h-.41s.33,.25,.33,.25l2.6,1.91-.98,3.07-.12,.39,.33-.24,2.62-1.88,2.62,1.88,.33,.24-.12-.39-.98-3.07,2.6-1.91,.33-.24h-.41s-3.23-.02-3.23-.02l-1.01-3.06-.13-.39h0Z"/>
        </g>
        <polygon class="cls-2" points="49.31 33.28 47.4 31.88 49.77 31.87 50.52 29.61 51.27 31.87 53.64 31.88 51.73 33.28 52.45 35.54 50.52 34.16 48.59 35.54 49.31 33.28"/>
      </g>
      <g>
        <g>
          <path class="cls-8" d="M53.86,50.58s-.04,.32,.13,.49c.22,.22,.6,.12,.77,.03,.45-.22,.49-.79,.49-.83l-1.4,.31h0Zm.37,.35c-.09,.02-.21-.12-.18-.2,.03-.09,.22-.12,.28-.05,.06,.07,0,.24-.1,.26h0Z"/>
          <path class="cls-8" d="M46.68,50.32c-.34,.02-.6,.15-.73,.23,.01,.09,.08,.45,.39,.69,.06,.04,.25,.2,.51,.2,.37,0,.74-.31,.91-.79-.12-.09-.52-.36-1.08-.33h0Zm.25,.79c-.03,.08-.14,.1-.22,.08-.07-.02-.15-.08-.14-.15,0-.08,.12-.15,.22-.13,.09,.02,.17,.12,.15,.2Z"/>
          <path class="cls-8" d="M44.24,48.3c-.08-.02-.2-.09-.21-.17,0-.17,.53-.21,.63-.54,.03-.08,.02-.16,0-.2,.19,.14,.22,.24,.21,.3-.02,.11-.15,.1-.27,.27-.1,.15-.07,.27-.18,.32-.08,.04-.16,.02-.19,0h0Z"/>
          <path class="cls-8" d="M55.65,48.83c-.03,.2-.42,.25-.46,.26-.3,.04-.55-.1-.66-.17,.17,.02,.38,0,.54-.11,.16-.12,.2-.27,.32-.27,.13,0,.28,.17,.26,.3h0Z"/>
          <path class="cls-8" d="M57.97,49.01c.02,.27,.02,.56-.08,.59-.09,.03-.21-.19-.39-.37-.2-.2-.54-.4-1.13-.46,.46,.35,.54,.47,.51,.52-.07,.13-.77-.29-1.28-.01-.3,.16-.43,.5-.49,.76-.02-.02-.05-.07-.06-.14-.02-.09,0-.16,.02-.19-.36,.17-1.17,.55-1.41,.66-.5,.24-.86,.4-.94,.31-.05-.06,.02-.2,.1-.32-.1,.01-.22,.05-.31,.15-.08,.1-.06,.2-.14,.24-.11,.06-.24-.1-.35-.06-.07,.02-.15,.12-.17,.45-.07-.01-.19-.02-.34,.02-.17,.05-.28,.14-.34,.19,.07,0,.13,.04,.15,.11,.01,.05,0,.11-.05,.15-.39,.14-.82,.02-1.05-.29-.3-.39-.13-.86-.12-.89-.11,.03-.26,.08-.41,.19-.21,.16-.26,.33-.38,.32-.12,0-.22-.17-.26-.27-.05-.14,0-.2-.06-.26-.1-.1-.29,.03-.51-.04-.15-.04-.24-.16-.29-.24,.08,.09,.1,.18,.07,.23-.04,.06-.15,.04-.17,.04-.27-.04-.43-.47-.46-.57-.17,.05-.38,.09-.53-.01-.18-.13-.11-.38-.26-.56-.11-.14-.36-.25-.94-.16-.07-.27-.18-.39-.29-.44-.3-.17-.68,.09-.87-.1-.07-.07-.08-.16-.08-.24-.21,.28-.35,.33-.45,.32-.19-.03-.27-.32-.37-.29-.07,.02-.1,.2-.11,.28-.02,.1,0,.13-.03,.15-.04,.03-.16,0-.52-.32,.09,.16,.21,.37,.16,.41-.04,.04-.14-.08-.22-.05-.13,.06-.1,.56,.09,.98,.08,.18,.18,.33,.14,.37-.04,.04-.16-.09-.34-.11-.2-.02-.37,.09-.49,.19,.17,.02,.47,.08,.76,.29,.12,.08,.6,.45,.66,.99,.02,.22-.04,.31,.05,.46,.15,.26,.52,.24,.53,.38,0,.12-.25,.15-.36,.37-.09,.17-.05,.36,0,.51,.15-.36,.25-.44,.31-.43,.09,.01,.07,.23,.24,.35,.13,.09,.2,0,.38,.06,.28,.09,.29,.37,.59,.5,.12,.05,.22,.05,.28,.05-.08,.13-.16,.26-.24,.38,.93,.4,1.38,.32,1.62,.14,.21-.16,.34-.46,.71-.55,.22-.05,.4,0,.43,.02,.34,.12,.46,.46,.47,.52,.06-.13,.11-.3,.07-.49-.04-.23-.19-.38-.15-.42,.02-.02,.1,0,.32,.14-.02-.11,.02-.21,.1-.26,.1-.07,.27-.03,.36,.11-.06-.14-.02-.27,.05-.3,.07-.03,.2,.04,.26,.19-.06-.13-.11-.29-.04-.38,.07-.08,.17-.01,.29-.08,.23-.12,.12-.5,.3-.59,.16-.08,.31,.16,.62,.15,.19,0,.34-.1,.43-.17-.02,.12-.02,.27,.07,.39,.14,.2,.4,.13,.54,.3,.08,.09,.14,.27,.04,.63,.02-.04,.29-.61,.49-.57,.1,.02,.18,.2,.15,.34-.03,.18-.22,.2-.25,.36-.01,.07,.01,.19,.21,.37-.05-.33,.05-.48,.09-.54,.33-.41,1.25,.02,1.41,.09,.17,.08,.29,.16,.34,.3,.05,.15-.01,.29-.04,.36,.05-.01,.14-.04,.19-.11,.11-.14,0-.31,.06-.42,.16-.32,1.64,.12,1.69-.01,.03-.08-.5-.28-.47-.44,.02-.13,.35-.18,.63-.2-.37,.01-.64-.17-.66-.34-.02-.18,.24-.46,.67-.47,.12,.03,.25,.05,.38,.08,.12,.02,.24,.04,.35,.05,0,0-.11-.14-.05-.29,.04-.12,.16-.2,.3-.2-.42-.27-.48-.44-.46-.56,.03-.18,.31-.22,.59-.57,.1-.13,.17-.25,.21-.34-.12-.04-.25-.11-.26-.21,0-.13,.25-.18,.37-.38,.08-.14,.1-.37-.13-.82h0Zm-9.88,2.68c-.46,.47-1.42,.37-2.01-.04-.3-.21-.6-.57-.51-.73,.05-.1,.21-.07,.63-.14,.42-.07,.45-.13,.67-.16,.6-.08,1.38,.21,1.43,.61,.03,.22-.15,.41-.21,.46h0Zm7.77-.33c-.26,.54-1.04,.68-1.55,.61-.32-.04-.99-.21-1.04-.59-.04-.32,.35-.66,.68-.79,.38-.15,.5,.04,1.23-.07,.37-.05,.5-.12,.62-.03,.2,.15,.2,.57,.06,.87h0Z"/>
        </g>
        <g>
          <path class="cls-8" d="M48.48,56.98c1.23,1.45,2.68,1.63,4.29,.67-.48,.76-1.47,1.16-2.36,1.05-.92-.13-1.69-.85-1.93-1.72h0Z"/>
          <path class="cls-8" d="M48.67,55.14c-.29,.24-.59,.48-.88,.73,.01,.04,.03,.08,.04,.13,.04,.14,.07,.26,.08,.38,.11-.23,.26-.36,.33-.33,.07,.03,.09,.19,.06,.37,.02-.02,.14-.13,.16-.31,.01-.15-.06-.26-.08-.29,.13,.04,.21,0,.23,0,.15-.08,.2-.37,.06-.68h0Z"/>
          <path class="cls-8" d="M47.7,55.96c.02,.12,.04,.24,.07,.35-.14,.08-.27,.16-.41,.24,.11-.2,.23-.39,.34-.59h0Z"/>
        </g>
        <g>
          <path class="cls-2" d="M43.04,54.25c.12,.15,.27,.38,.34,.69,.09,.4-.06,.51,.05,.82,.14,.39,.45,.4,.57,.79,.07,.23,.04,.44,0,.58,.84,1.06,1.68,2.13,2.52,3.19-.03-.21-.02-.33,.03-.35,.08-.04,.28,.16,.58,.6,.11-.02,.36-.05,.64,.06,.44,.17,.61,.57,.65,.65,0-.03,0-.18,.09-.22,.1-.05,.29,.04,.42,.26,.04-.02,.37-.2,.71-.05,.17,.07,.27,.2,.32,.26,.68-.06,1.36-.12,2.03-.19-.09,.2-.08,.26-.06,.27,.1,.07,.58-.63,1.49-1.09,.19-.1,.35-.16,.46-.2-.04-.05-.09-.14-.08-.26,.02-.29,.44-.49,.53-.42,.04,.03,.05,.13-.09,.42,.42-.35,.78-.59,1.04-.75,.27-.16,.54-.31,.6-.59,.03-.14,0-.27-.04-.36,.08-.02,.25-.09,.39-.26,.25-.3,.17-.67,.16-.72,.36-.34,.9-.93,1.27-1.82,.2-.48,.3-.92,.35-1.28,.11-.06,.18-.12,.24-.19,.48-.52,.21-1.41,.17-1.51,.04,.39-.04,.64-.12,.8-.15,.3-.32,.33-.46,.67-.03,.06-.06,.26-.14,.66-.09,.5-.11,.61-.21,.68-.05,.04-.2,.1-.52-.04,.03,.05,.12,.24,.06,.46-.07,.24-.29,.42-.57,.45,0,.06,0,.19-.08,.32-.17,.26-.52,.25-.54,.24,.03,.02,.29,.2,.27,.44-.01,.27-.34,.55-.8,.51-.11,.1-.28,.25-.54,.36-.33,.15-.63,.15-.79,.15-.02,.08-.07,.21-.15,.34-.09,.14-.31,.49-.64,.49-.06,0-.2-.01-.37-.15-.05,.22-.15,.33-.21,.39-.27,.25-.74,.27-1.18,.03-.04,.07-.12,.17-.26,.23-.26,.11-.55-.04-.79-.17-.11-.06-.27-.16-.44-.32-.12,.09-.32,.23-.6,.31-.12,.03-.73,.19-1.25-.12-.46-.27-.39-.64-.83-.78-.29-.1-.71-.06-.79,.15-.07,.16,.09,.36,.14,.42-.4-.09-.69-.25-.69-.4,0-.04,.02-.14,.1-.18,.06-.03,.1,0,.15-.02,.11-.05,.14-.33,.03-.44-.11-.1-.32,0-.34-.05-.02-.04,.09-.14,.5-.38-.19-.02-.43-.01-.56,.14-.12,.15-.05,.32-.18,.41-.14,.1-.44,.01-.51-.15-.06-.12,.04-.21,.01-.38-.03-.19-.22-.32-.38-.41-.01-.03-.08-.2,0-.39,.1-.22,.33-.28,.36-.28-.03-.04-.21-.34-.56-.38-.18-.02-.32,.03-.39,.06,.07-.04,.38-.26,.42-.62,.04-.33-.18-.58-.35-.76-.4-.46-.93-.6-1.21-.65h0Z"/>
          <path class="cls-3" d="M50.12,61.13c-.1-.09-.21-.16-.33-.22-.14-.06-.29-.09-.44-.09-.11,0-.21,.01-.3,.04-.14-.13-.31-.21-.48-.21-.03,0-.06,0-.09,0-.13-.15-.32-.29-.56-.39-.18-.07-.36-.1-.56-.1h-.04c-.32-.43-.51-.58-.74-.58-.04,0-.09,0-.13,.02l-.12-.16c.07,.02,.15,.04,.23,.06l1.08,.25-.69-.86h.02c.07,0,.15,.01,.2,.03,.1,.03,.12,.07,.22,.21,.1,.15,.24,.36,.53,.54,.27,.16,.58,.24,.93,.24,.28,0,.51-.05,.62-.09,.16-.05,.32-.11,.47-.2,.09,.07,.19,.13,.29,.18,.21,.11,.47,.25,.78,.25,.12,0,.24-.02,.35-.07,.07-.03,.14-.07,.2-.12,.18,.06,.35,.09,.53,.09,.32,0,.61-.11,.82-.3,.05-.05,.09-.1,.13-.15,.07,.01,.13,.02,.18,.02,.55,0,.86-.5,.97-.67,.03-.05,.07-.11,.09-.17,.24-.02,.46-.08,.68-.17,.16-.07,.31-.15,.44-.26l.09,.25c.02,.05,.03,.1,.02,.14-.02,.1-.19,.2-.36,.31l-.06,.04c-.18,.11-.35,.22-.52,.35-.06-.04-.15-.1-.29-.1-.32,0-.82,.32-.86,.79,0,.02,0,.04,0,.06-.06,.03-.11,.05-.17,.08-.47,.24-.83,.53-1.08,.76l-2.04,.19h0Zm-5.69-4.42s0-.07-.01-.1c.02,0,.04,0,.07,0h0s-.04,.07-.06,.11Zm-.44-.83c-.1-.09-.15-.14-.19-.24-.03-.07-.02-.11-.01-.21,.01-.11,.02-.25,0-.44,.07,.05,.13,.11,.18,.18,.16,.18,.27,.32,.25,.47-.01,.13-.12,.24-.19,.29-.02-.01-.03-.03-.04-.04h0Z"/>
        </g>
      </g>
    </g>
  </g>
</svg>